<svg xmlns="http://www.w3.org/2000/svg" xmlns:xlink="http://www.w3.org/1999/xlink" width="250" zoomAndPan="magnify" viewBox="0 0 187.5 187.499992" height="250" preserveAspectRatio="xMidYMid meet" version="1.0"><defs><clipPath id="af9bad7fed"><path d="M 68.59375 68.59375 L 118.84375 68.59375 L 118.84375 118.84375 L 68.59375 118.84375 Z M 68.59375 68.59375 " clip-rule="nonzero"/></clipPath><clipPath id="3cf6f22920"><path d="M 118.84375 93.71875 C 118.84375 94.542969 118.804688 95.363281 118.722656 96.179688 C 118.640625 97 118.519531 97.8125 118.359375 98.621094 C 118.199219 99.425781 118 100.222656 117.761719 101.011719 C 117.523438 101.800781 117.246094 102.574219 116.929688 103.332031 C 116.617188 104.09375 116.265625 104.835938 115.875 105.5625 C 115.488281 106.289062 115.066406 106.992188 114.609375 107.675781 C 114.152344 108.359375 113.664062 109.019531 113.140625 109.65625 C 112.617188 110.292969 112.066406 110.902344 111.484375 111.484375 C 110.902344 112.066406 110.292969 112.617188 109.65625 113.140625 C 109.019531 113.664062 108.359375 114.152344 107.675781 114.609375 C 106.992188 115.066406 106.289062 115.488281 105.5625 115.875 C 104.835938 116.265625 104.09375 116.617188 103.332031 116.929688 C 102.574219 117.246094 101.800781 117.523438 101.011719 117.761719 C 100.222656 118 99.425781 118.199219 98.621094 118.359375 C 97.8125 118.519531 97 118.640625 96.179688 118.722656 C 95.363281 118.804688 94.542969 118.84375 93.71875 118.84375 C 92.894531 118.84375 92.074219 118.804688 91.253906 118.722656 C 90.4375 118.640625 89.625 118.519531 88.816406 118.359375 C 88.007812 118.199219 87.210938 118 86.425781 117.761719 C 85.636719 117.523438 84.863281 117.246094 84.101562 116.929688 C 83.34375 116.617188 82.601562 116.265625 81.875 115.875 C 81.148438 115.488281 80.445312 115.066406 79.757812 114.609375 C 79.074219 114.152344 78.414062 113.664062 77.777344 113.140625 C 77.144531 112.617188 76.535156 112.066406 75.953125 111.484375 C 75.371094 110.902344 74.816406 110.292969 74.296875 109.65625 C 73.773438 109.019531 73.285156 108.359375 72.828125 107.675781 C 72.371094 106.992188 71.949219 106.289062 71.558594 105.5625 C 71.171875 104.835938 70.820312 104.09375 70.503906 103.332031 C 70.191406 102.574219 69.914062 101.800781 69.675781 101.011719 C 69.4375 100.222656 69.238281 99.425781 69.074219 98.621094 C 68.914062 97.8125 68.792969 97 68.714844 96.179688 C 68.632812 95.363281 68.59375 94.542969 68.59375 93.71875 C 68.59375 92.894531 68.632812 92.074219 68.714844 91.253906 C 68.792969 90.4375 68.914062 89.625 69.074219 88.816406 C 69.238281 88.007812 69.4375 87.210938 69.675781 86.425781 C 69.914062 85.636719 70.191406 84.863281 70.503906 84.101562 C 70.820312 83.34375 71.171875 82.601562 71.558594 81.875 C 71.949219 81.148438 72.371094 80.445312 72.828125 79.757812 C 73.285156 79.074219 73.773438 78.414062 74.296875 77.777344 C 74.816406 77.144531 75.371094 76.535156 75.953125 75.953125 C 76.535156 75.371094 77.144531 74.816406 77.777344 74.296875 C 78.414062 73.773438 79.074219 73.285156 79.757812 72.828125 C 80.445312 72.371094 81.148438 71.949219 81.875 71.558594 C 82.601562 71.171875 83.34375 70.820312 84.101562 70.503906 C 84.863281 70.191406 85.636719 69.914062 86.425781 69.675781 C 87.210938 69.4375 88.007812 69.238281 88.816406 69.074219 C 89.625 68.914062 90.4375 68.792969 91.253906 68.714844 C 92.074219 68.632812 92.894531 68.59375 93.71875 68.59375 C 94.542969 68.59375 95.363281 68.632812 96.179688 68.714844 C 97 68.792969 97.8125 68.914062 98.621094 69.074219 C 99.425781 69.238281 100.222656 69.4375 101.011719 69.675781 C 101.800781 69.914062 102.574219 70.191406 103.332031 70.503906 C 104.09375 70.820312 104.835938 71.171875 105.5625 71.558594 C 106.289062 71.949219 106.992188 72.371094 107.675781 72.828125 C 108.359375 73.285156 109.019531 73.773438 109.65625 74.296875 C 110.292969 74.816406 110.902344 75.371094 111.484375 75.953125 C 112.066406 76.535156 112.617188 77.144531 113.140625 77.777344 C 113.664062 78.414062 114.152344 79.074219 114.609375 79.757812 C 115.066406 80.445312 115.488281 81.148438 115.875 81.875 C 116.265625 82.601562 116.617188 83.34375 116.929688 84.101562 C 117.246094 84.863281 117.523438 85.636719 117.761719 86.425781 C 118 87.210938 118.199219 88.007812 118.359375 88.816406 C 118.519531 89.625 118.640625 90.4375 118.722656 91.253906 C 118.804688 92.074219 118.84375 92.894531 118.84375 93.71875 Z M 118.84375 93.71875 " clip-rule="nonzero"/></clipPath><linearGradient x1="0.0000000464596" gradientTransform="matrix(50.249993, 0, 0, 50.249993, 68.593217, 68.593211)" y1="0.0000000460041" x2="1.004902" gradientUnits="userSpaceOnUse" y2="0.99505" id="a25c9c470e"><stop stop-opacity="1" stop-color="rgb(28.999329%, 87.098694%, 50.19989%)" offset="0"/><stop stop-opacity="1" stop-color="rgb(28.926086%, 87.197876%, 50.305176%)" offset="0.015625"/><stop stop-opacity="1" stop-color="rgb(28.781128%, 87.397766%, 50.515747%)" offset="0.03125"/><stop stop-opacity="1" stop-color="rgb(28.636169%, 87.59613%, 50.727844%)" offset="0.046875"/><stop stop-opacity="1" stop-color="rgb(28.491211%, 87.796021%, 50.938416%)" offset="0.0625"/><stop stop-opacity="1" stop-color="rgb(28.344727%, 87.995911%, 51.150513%)" offset="0.078125"/><stop stop-opacity="1" stop-color="rgb(28.199768%, 88.194275%, 51.36261%)" offset="0.09375"/><stop stop-opacity="1" stop-color="rgb(28.05481%, 88.394165%, 51.573181%)" offset="0.109375"/><stop stop-opacity="1" stop-color="rgb(27.909851%, 88.592529%, 51.785278%)" offset="0.125"/><stop stop-opacity="1" stop-color="rgb(27.764893%, 88.792419%, 51.997375%)" offset="0.140625"/><stop stop-opacity="1" stop-color="rgb(27.619934%, 88.990784%, 52.207947%)" offset="0.15625"/><stop stop-opacity="1" stop-color="rgb(27.474976%, 89.190674%, 52.420044%)" offset="0.171875"/><stop stop-opacity="1" stop-color="rgb(27.330017%, 89.389038%, 52.632141%)" offset="0.1875"/><stop stop-opacity="1" stop-color="rgb(27.183533%, 89.588928%, 52.842712%)" offset="0.203125"/><stop stop-opacity="1" stop-color="rgb(27.038574%, 89.787292%, 53.05481%)" offset="0.21875"/><stop stop-opacity="1" stop-color="rgb(26.893616%, 89.987183%, 53.265381%)" offset="0.234375"/><stop stop-opacity="1" stop-color="rgb(26.748657%, 90.185547%, 53.477478%)" offset="0.25"/><stop stop-opacity="1" stop-color="rgb(26.603699%, 90.385437%, 53.689575%)" offset="0.265625"/><stop stop-opacity="1" stop-color="rgb(26.45874%, 90.583801%, 53.900146%)" offset="0.28125"/><stop stop-opacity="1" stop-color="rgb(26.313782%, 90.783691%, 54.112244%)" offset="0.296875"/><stop stop-opacity="1" stop-color="rgb(26.168823%, 90.983582%, 54.324341%)" offset="0.3125"/><stop stop-opacity="1" stop-color="rgb(26.023865%, 91.181946%, 54.534912%)" offset="0.328125"/><stop stop-opacity="1" stop-color="rgb(25.87738%, 91.381836%, 54.747009%)" offset="0.34375"/><stop stop-opacity="1" stop-color="rgb(25.732422%, 91.5802%, 54.957581%)" offset="0.359375"/><stop stop-opacity="1" stop-color="rgb(25.587463%, 91.78009%, 55.169678%)" offset="0.375"/><stop stop-opacity="1" stop-color="rgb(25.442505%, 91.978455%, 55.381775%)" offset="0.390625"/><stop stop-opacity="1" stop-color="rgb(25.297546%, 92.178345%, 55.592346%)" offset="0.40625"/><stop stop-opacity="1" stop-color="rgb(25.152588%, 92.376709%, 55.804443%)" offset="0.421875"/><stop stop-opacity="1" stop-color="rgb(25.007629%, 92.576599%, 56.016541%)" offset="0.4375"/><stop stop-opacity="1" stop-color="rgb(24.862671%, 92.774963%, 56.227112%)" offset="0.453125"/><stop stop-opacity="1" stop-color="rgb(24.716187%, 92.974854%, 56.439209%)" offset="0.46875"/><stop stop-opacity="1" stop-color="rgb(24.571228%, 93.173218%, 56.651306%)" offset="0.484375"/><stop stop-opacity="1" stop-color="rgb(24.42627%, 93.373108%, 56.861877%)" offset="0.497537"/><stop stop-opacity="1" stop-color="rgb(24.354553%, 93.473816%, 56.968689%)" offset="0.5"/><stop stop-opacity="1" stop-color="rgb(24.281311%, 93.572998%, 57.073975%)" offset="0.502463"/><stop stop-opacity="1" stop-color="rgb(24.209595%, 93.67218%, 57.17926%)" offset="0.515625"/><stop stop-opacity="1" stop-color="rgb(24.136353%, 93.771362%, 57.284546%)" offset="0.53125"/><stop stop-opacity="1" stop-color="rgb(23.991394%, 93.971252%, 57.496643%)" offset="0.546875"/><stop stop-opacity="1" stop-color="rgb(23.846436%, 94.169617%, 57.70874%)" offset="0.5625"/><stop stop-opacity="1" stop-color="rgb(23.701477%, 94.369507%, 57.919312%)" offset="0.578125"/><stop stop-opacity="1" stop-color="rgb(23.554993%, 94.567871%, 58.131409%)" offset="0.59375"/><stop stop-opacity="1" stop-color="rgb(23.410034%, 94.767761%, 58.343506%)" offset="0.609375"/><stop stop-opacity="1" stop-color="rgb(23.265076%, 94.966125%, 58.554077%)" offset="0.625"/><stop stop-opacity="1" stop-color="rgb(23.120117%, 95.166016%, 58.766174%)" offset="0.640625"/><stop stop-opacity="1" stop-color="rgb(22.975159%, 95.36438%, 58.978271%)" offset="0.65625"/><stop stop-opacity="1" stop-color="rgb(22.8302%, 95.56427%, 59.188843%)" offset="0.671875"/><stop stop-opacity="1" stop-color="rgb(22.685242%, 95.762634%, 59.40094%)" offset="0.6875"/><stop stop-opacity="1" stop-color="rgb(22.540283%, 95.962524%, 59.611511%)" offset="0.703125"/><stop stop-opacity="1" stop-color="rgb(22.395325%, 96.162415%, 59.823608%)" offset="0.71875"/><stop stop-opacity="1" stop-color="rgb(22.24884%, 96.360779%, 60.035706%)" offset="0.734375"/><stop stop-opacity="1" stop-color="rgb(22.103882%, 96.560669%, 60.246277%)" offset="0.75"/><stop stop-opacity="1" stop-color="rgb(21.958923%, 96.759033%, 60.458374%)" offset="0.765625"/><stop stop-opacity="1" stop-color="rgb(21.813965%, 96.958923%, 60.670471%)" offset="0.78125"/><stop stop-opacity="1" stop-color="rgb(21.669006%, 97.157288%, 60.881042%)" offset="0.796875"/><stop stop-opacity="1" stop-color="rgb(21.524048%, 97.357178%, 61.09314%)" offset="0.8125"/><stop stop-opacity="1" stop-color="rgb(21.379089%, 97.555542%, 61.303711%)" offset="0.828125"/><stop stop-opacity="1" stop-color="rgb(21.234131%, 97.755432%, 61.515808%)" offset="0.84375"/><stop stop-opacity="1" stop-color="rgb(21.087646%, 97.953796%, 61.727905%)" offset="0.859375"/><stop stop-opacity="1" stop-color="rgb(20.942688%, 98.153687%, 61.938477%)" offset="0.875"/><stop stop-opacity="1" stop-color="rgb(20.797729%, 98.352051%, 62.150574%)" offset="0.890625"/><stop stop-opacity="1" stop-color="rgb(20.652771%, 98.551941%, 62.362671%)" offset="0.90625"/><stop stop-opacity="1" stop-color="rgb(20.507812%, 98.751831%, 62.573242%)" offset="0.921875"/><stop stop-opacity="1" stop-color="rgb(20.362854%, 98.950195%, 62.785339%)" offset="0.9375"/><stop stop-opacity="1" stop-color="rgb(20.217896%, 99.150085%, 62.997437%)" offset="0.953125"/><stop stop-opacity="1" stop-color="rgb(20.072937%, 99.34845%, 63.208008%)" offset="0.96875"/><stop stop-opacity="1" stop-color="rgb(19.926453%, 99.54834%, 63.420105%)" offset="0.984375"/><stop stop-opacity="1" stop-color="rgb(19.781494%, 99.746704%, 63.630676%)" offset="1"/></linearGradient></defs><path fill="#666666" d="M 93.558594 12.207031 C 90.390625 19.476562 93.160156 27.878906 99.898438 32.0625 C 139.359375 56.546875 155.902344 106.929688 136.792969 150.753906 C 130.941406 164.175781 122.359375 175.558594 111.988281 184.546875 C 130.492188 173.621094 145.855469 156.976562 155.105469 135.769531 C 175.960938 87.945312 158.6875 33.109375 116.636719 5.269531 C 108.503906 -0.117188 97.460938 3.265625 93.558594 12.207031 " fill-opacity="1" fill-rule="nonzero"/><path fill="#666666" d="M 94.089844 175.027344 C 97.261719 167.753906 94.492188 159.351562 87.753906 155.171875 C 48.292969 130.6875 31.75 80.304688 50.859375 36.476562 C 56.710938 23.058594 65.292969 11.671875 75.660156 2.683594 C 57.15625 13.613281 41.792969 30.253906 32.546875 51.460938 C 11.691406 99.285156 28.964844 154.125 71.015625 181.964844 C 79.148438 187.351562 90.191406 183.96875 94.089844 175.027344 " fill-opacity="1" fill-rule="nonzero"/><g clip-path="url(#af9bad7fed)"><g clip-path="url(#3cf6f22920)"><path fill="url(#a25c9c470e)" d="M 68.59375 68.59375 L 68.59375 118.84375 L 118.84375 118.84375 L 118.84375 68.59375 Z M 68.59375 68.59375 " fill-rule="nonzero"/></g></g></svg>